<mxfile host="Electron" agent="Mozilla/5.0 (Macintosh; Intel Mac OS X 10_15_7) AppleWebKit/537.36 (KHTML, like Gecko) draw.io/24.7.17 Chrome/128.0.6613.36 Electron/32.0.1 Safari/537.36" version="24.7.17">
  <diagram name="Page-1" id="90a13364-a465-7bf4-72fc-28e22215d7a0">
    <mxGraphModel dx="1306" dy="947" grid="1" gridSize="10" guides="1" tooltips="1" connect="1" arrows="1" fold="1" page="1" pageScale="1.5" pageWidth="1169" pageHeight="826" background="none" math="0" shadow="0">
      <root>
        <mxCell id="0" style=";html=1;" />
        <mxCell id="1" style=";html=1;" parent="0" />
        <mxCell id="3a17f1ce550125da-11" value="Training &amp;amp; Test" style="whiteSpace=wrap;html=1;shadow=1;fontSize=14;fillColor=#f5f5f5;strokeColor=#666666;fontStyle=1" parent="1" vertex="1">
          <mxGeometry x="1400" y="150" width="120" height="60" as="geometry" />
        </mxCell>
        <mxCell id="Upv4YybJIMChpoN5srZg-8" value="" style="edgeStyle=orthogonalEdgeStyle;rounded=0;orthogonalLoop=1;jettySize=auto;html=1;" edge="1" parent="1" source="Upv4YybJIMChpoN5srZg-1" target="Upv4YybJIMChpoN5srZg-6">
          <mxGeometry relative="1" as="geometry">
            <Array as="points">
              <mxPoint x="320" y="170" />
              <mxPoint x="320" y="170" />
            </Array>
          </mxGeometry>
        </mxCell>
        <mxCell id="Upv4YybJIMChpoN5srZg-1" value="&lt;b&gt;&lt;font style=&quot;font-size: 18px;&quot;&gt;TON_IoT Dataset&lt;/font&gt;&lt;/b&gt;" style="shape=cylinder3;whiteSpace=wrap;html=1;boundedLbl=1;backgroundOutline=1;size=15;" vertex="1" parent="1">
          <mxGeometry x="149" y="95" width="140" height="150" as="geometry" />
        </mxCell>
        <mxCell id="Upv4YybJIMChpoN5srZg-4" value="&lt;b&gt;&lt;font style=&quot;font-size: 14px;&quot;&gt;Benign&lt;/font&gt;&lt;/b&gt;" style="shape=cube;whiteSpace=wrap;html=1;boundedLbl=1;backgroundOutline=1;darkOpacity=0.05;darkOpacity2=0.1;" vertex="1" parent="1">
          <mxGeometry x="360" y="30" width="120" height="80" as="geometry" />
        </mxCell>
        <mxCell id="Upv4YybJIMChpoN5srZg-5" value="&lt;font style=&quot;font-size: 14px;&quot;&gt;&lt;b&gt;XSS&lt;/b&gt;&lt;/font&gt;" style="shape=cube;whiteSpace=wrap;html=1;boundedLbl=1;backgroundOutline=1;darkOpacity=0.05;darkOpacity2=0.1;" vertex="1" parent="1">
          <mxGeometry x="360" y="260" width="120" height="80" as="geometry" />
        </mxCell>
        <mxCell id="Upv4YybJIMChpoN5srZg-6" value="&lt;font style=&quot;font-size: 14px;&quot;&gt;&lt;b&gt;DDoS&lt;/b&gt;&lt;/font&gt;" style="shape=cube;whiteSpace=wrap;html=1;boundedLbl=1;backgroundOutline=1;darkOpacity=0.05;darkOpacity2=0.1;" vertex="1" parent="1">
          <mxGeometry x="360" y="140" width="120" height="80" as="geometry" />
        </mxCell>
        <mxCell id="Upv4YybJIMChpoN5srZg-15" value="" style="endArrow=classic;html=1;rounded=0;entryX=0;entryY=0;entryDx=0;entryDy=30;entryPerimeter=0;" edge="1" parent="1" target="Upv4YybJIMChpoN5srZg-4">
          <mxGeometry width="50" height="50" relative="1" as="geometry">
            <mxPoint x="220" y="95" as="sourcePoint" />
            <mxPoint x="720" y="460" as="targetPoint" />
            <Array as="points">
              <mxPoint x="220" y="60" />
            </Array>
          </mxGeometry>
        </mxCell>
        <mxCell id="Upv4YybJIMChpoN5srZg-16" value="" style="endArrow=classic;html=1;rounded=0;exitX=0.5;exitY=1;exitDx=0;exitDy=0;exitPerimeter=0;entryX=0.019;entryY=0.479;entryDx=0;entryDy=0;entryPerimeter=0;" edge="1" parent="1" source="Upv4YybJIMChpoN5srZg-1" target="Upv4YybJIMChpoN5srZg-5">
          <mxGeometry width="50" height="50" relative="1" as="geometry">
            <mxPoint x="670" y="510" as="sourcePoint" />
            <mxPoint x="720" y="460" as="targetPoint" />
            <Array as="points">
              <mxPoint x="220" y="298" />
            </Array>
          </mxGeometry>
        </mxCell>
        <mxCell id="Upv4YybJIMChpoN5srZg-17" value="&lt;font style=&quot;font-size: 14px;&quot;&gt;&lt;b&gt;TestSet&lt;/b&gt;&lt;/font&gt;" style="shape=cube;whiteSpace=wrap;html=1;boundedLbl=1;backgroundOutline=1;darkOpacity=0.05;darkOpacity2=0.1;" vertex="1" parent="1">
          <mxGeometry x="610" y="140" width="120" height="80" as="geometry" />
        </mxCell>
        <mxCell id="Upv4YybJIMChpoN5srZg-25" value="" style="endArrow=none;html=1;rounded=0;entryX=0;entryY=0;entryDx=0;entryDy=30;entryPerimeter=0;exitX=0;exitY=0;exitDx=120;exitDy=50;exitPerimeter=0;" edge="1" parent="1" source="Upv4YybJIMChpoN5srZg-5" target="Upv4YybJIMChpoN5srZg-17">
          <mxGeometry width="50" height="50" relative="1" as="geometry">
            <mxPoint x="670" y="510" as="sourcePoint" />
            <mxPoint x="720" y="460" as="targetPoint" />
          </mxGeometry>
        </mxCell>
        <mxCell id="Upv4YybJIMChpoN5srZg-26" value="" style="endArrow=none;html=1;rounded=0;entryX=0;entryY=0;entryDx=0;entryDy=30;entryPerimeter=0;exitX=0;exitY=0;exitDx=120;exitDy=50;exitPerimeter=0;" edge="1" parent="1" source="Upv4YybJIMChpoN5srZg-4" target="Upv4YybJIMChpoN5srZg-17">
          <mxGeometry width="50" height="50" relative="1" as="geometry">
            <mxPoint x="670" y="510" as="sourcePoint" />
            <mxPoint x="720" y="460" as="targetPoint" />
          </mxGeometry>
        </mxCell>
        <mxCell id="Upv4YybJIMChpoN5srZg-27" value="" style="endArrow=none;html=1;rounded=0;entryX=0;entryY=0;entryDx=0;entryDy=30;entryPerimeter=0;exitX=1.003;exitY=0.404;exitDx=0;exitDy=0;exitPerimeter=0;" edge="1" parent="1" source="Upv4YybJIMChpoN5srZg-6" target="Upv4YybJIMChpoN5srZg-17">
          <mxGeometry width="50" height="50" relative="1" as="geometry">
            <mxPoint x="670" y="510" as="sourcePoint" />
            <mxPoint x="720" y="460" as="targetPoint" />
          </mxGeometry>
        </mxCell>
        <mxCell id="Upv4YybJIMChpoN5srZg-28" value="&lt;b&gt;DDoShield&lt;/b&gt;&lt;div&gt;&lt;b&gt;IoT&lt;/b&gt;&lt;/div&gt;" style="whiteSpace=wrap;html=1;shadow=1;fontSize=18;fillColor=#f5f5f5;strokeColor=#666666;" vertex="1" parent="1">
          <mxGeometry x="159" y="550" width="120" height="150" as="geometry" />
        </mxCell>
        <mxCell id="Upv4YybJIMChpoN5srZg-29" value="" style="shape=sumEllipse;perimeter=ellipsePerimeter;whiteSpace=wrap;html=1;backgroundOutline=1;" vertex="1" parent="1">
          <mxGeometry x="370" y="590" width="50" height="50" as="geometry" />
        </mxCell>
        <mxCell id="Upv4YybJIMChpoN5srZg-31" value="" style="endArrow=classic;html=1;rounded=0;entryX=0;entryY=0.5;entryDx=0;entryDy=0;exitX=0.996;exitY=0.439;exitDx=0;exitDy=0;exitPerimeter=0;" edge="1" parent="1" source="Upv4YybJIMChpoN5srZg-28" target="Upv4YybJIMChpoN5srZg-29">
          <mxGeometry width="50" height="50" relative="1" as="geometry">
            <mxPoint x="640" y="480" as="sourcePoint" />
            <mxPoint x="690" y="430" as="targetPoint" />
          </mxGeometry>
        </mxCell>
        <mxCell id="Upv4YybJIMChpoN5srZg-32" value="" style="endArrow=classic;html=1;rounded=0;exitX=0.145;exitY=1;exitDx=0;exitDy=-4.35;exitPerimeter=0;entryX=0.5;entryY=0;entryDx=0;entryDy=0;horizontal=1;" edge="1" parent="1" source="Upv4YybJIMChpoN5srZg-1" target="Upv4YybJIMChpoN5srZg-29">
          <mxGeometry width="50" height="50" relative="1" as="geometry">
            <mxPoint x="640" y="480" as="sourcePoint" />
            <mxPoint x="690" y="430" as="targetPoint" />
            <Array as="points">
              <mxPoint x="170" y="440" />
              <mxPoint x="395" y="440" />
            </Array>
          </mxGeometry>
        </mxCell>
        <mxCell id="Upv4YybJIMChpoN5srZg-33" value="&lt;font style=&quot;font-size: 14px;&quot;&gt;&lt;b&gt;Scenario1&lt;/b&gt;&lt;/font&gt;" style="shape=cube;whiteSpace=wrap;html=1;boundedLbl=1;backgroundOutline=1;darkOpacity=0.05;darkOpacity2=0.1;" vertex="1" parent="1">
          <mxGeometry x="510" y="575" width="120" height="80" as="geometry" />
        </mxCell>
        <mxCell id="Upv4YybJIMChpoN5srZg-36" value="" style="endArrow=classic;html=1;rounded=0;entryX=0.024;entryY=0.517;entryDx=0;entryDy=0;entryPerimeter=0;exitX=1;exitY=0.5;exitDx=0;exitDy=0;" edge="1" parent="1" source="Upv4YybJIMChpoN5srZg-29" target="Upv4YybJIMChpoN5srZg-33">
          <mxGeometry width="50" height="50" relative="1" as="geometry">
            <mxPoint x="640" y="480" as="sourcePoint" />
            <mxPoint x="690" y="430" as="targetPoint" />
          </mxGeometry>
        </mxCell>
        <mxCell id="Upv4YybJIMChpoN5srZg-38" value="" style="shape=sumEllipse;perimeter=ellipsePerimeter;whiteSpace=wrap;html=1;backgroundOutline=1;" vertex="1" parent="1">
          <mxGeometry x="545" y="420" width="50" height="50" as="geometry" />
        </mxCell>
        <mxCell id="Upv4YybJIMChpoN5srZg-39" value="" style="endArrow=classic;html=1;rounded=0;entryX=0.5;entryY=1;entryDx=0;entryDy=0;exitX=0.487;exitY=0.017;exitDx=0;exitDy=0;exitPerimeter=0;" edge="1" parent="1" source="Upv4YybJIMChpoN5srZg-33" target="Upv4YybJIMChpoN5srZg-38">
          <mxGeometry width="50" height="50" relative="1" as="geometry">
            <mxPoint x="640" y="480" as="sourcePoint" />
            <mxPoint x="690" y="430" as="targetPoint" />
          </mxGeometry>
        </mxCell>
        <mxCell id="Upv4YybJIMChpoN5srZg-40" value="" style="endArrow=classic;html=1;rounded=0;entryX=0.036;entryY=0.36;entryDx=0;entryDy=0;entryPerimeter=0;" edge="1" parent="1" target="Upv4YybJIMChpoN5srZg-38">
          <mxGeometry width="50" height="50" relative="1" as="geometry">
            <mxPoint x="390" y="440" as="sourcePoint" />
            <mxPoint x="530" y="410" as="targetPoint" />
          </mxGeometry>
        </mxCell>
        <mxCell id="Upv4YybJIMChpoN5srZg-41" value="" style="endArrow=none;html=1;rounded=0;exitX=1;exitY=0.5;exitDx=0;exitDy=0;entryX=0;entryY=0;entryDx=0;entryDy=15;entryPerimeter=0;" edge="1" parent="1" source="Upv4YybJIMChpoN5srZg-38" target="Upv4YybJIMChpoN5srZg-45">
          <mxGeometry width="50" height="50" relative="1" as="geometry">
            <mxPoint x="640" y="470" as="sourcePoint" />
            <mxPoint x="660" y="400" as="targetPoint" />
          </mxGeometry>
        </mxCell>
        <mxCell id="Upv4YybJIMChpoN5srZg-45" value="&lt;b&gt;&lt;font style=&quot;font-size: 14px;&quot;&gt;Scenario2&lt;/font&gt;&lt;/b&gt;" style="shape=cube;whiteSpace=wrap;html=1;boundedLbl=1;backgroundOutline=1;darkOpacity=0.05;darkOpacity2=0.1;" vertex="1" parent="1">
          <mxGeometry x="670" y="280" width="110" height="70" as="geometry" />
        </mxCell>
        <mxCell id="Upv4YybJIMChpoN5srZg-46" value="Scenario3" style="shape=cube;whiteSpace=wrap;html=1;boundedLbl=1;backgroundOutline=1;darkOpacity=0.05;darkOpacity2=0.1;fontStyle=1;fontSize=14;" vertex="1" parent="1">
          <mxGeometry x="670" y="360" width="110" height="70" as="geometry" />
        </mxCell>
        <mxCell id="Upv4YybJIMChpoN5srZg-47" value="Scenario4" style="shape=cube;whiteSpace=wrap;html=1;boundedLbl=1;backgroundOutline=1;darkOpacity=0.05;darkOpacity2=0.1;fontStyle=1;fontSize=14;" vertex="1" parent="1">
          <mxGeometry x="670" y="450" width="110" height="70" as="geometry" />
        </mxCell>
        <mxCell id="Upv4YybJIMChpoN5srZg-48" value="Scenario5" style="shape=cube;whiteSpace=wrap;html=1;boundedLbl=1;backgroundOutline=1;darkOpacity=0.05;darkOpacity2=0.1;fontStyle=1;fontSize=14;" vertex="1" parent="1">
          <mxGeometry x="670" y="540" width="110" height="70" as="geometry" />
        </mxCell>
        <mxCell id="Upv4YybJIMChpoN5srZg-49" value="" style="endArrow=none;html=1;rounded=0;entryX=0;entryY=0;entryDx=0;entryDy=15;entryPerimeter=0;exitX=1;exitY=0.5;exitDx=0;exitDy=0;" edge="1" parent="1" source="Upv4YybJIMChpoN5srZg-38" target="Upv4YybJIMChpoN5srZg-46">
          <mxGeometry width="50" height="50" relative="1" as="geometry">
            <mxPoint x="640" y="470" as="sourcePoint" />
            <mxPoint x="690" y="420" as="targetPoint" />
          </mxGeometry>
        </mxCell>
        <mxCell id="Upv4YybJIMChpoN5srZg-50" value="" style="endArrow=none;html=1;rounded=0;exitX=1;exitY=0.5;exitDx=0;exitDy=0;entryX=0;entryY=0;entryDx=0;entryDy=15;entryPerimeter=0;" edge="1" parent="1" source="Upv4YybJIMChpoN5srZg-38" target="Upv4YybJIMChpoN5srZg-47">
          <mxGeometry width="50" height="50" relative="1" as="geometry">
            <mxPoint x="640" y="470" as="sourcePoint" />
            <mxPoint x="690" y="420" as="targetPoint" />
          </mxGeometry>
        </mxCell>
        <mxCell id="Upv4YybJIMChpoN5srZg-51" value="" style="endArrow=none;html=1;rounded=0;exitX=1;exitY=0.5;exitDx=0;exitDy=0;entryX=0;entryY=0;entryDx=0;entryDy=15;entryPerimeter=0;" edge="1" parent="1" source="Upv4YybJIMChpoN5srZg-38" target="Upv4YybJIMChpoN5srZg-48">
          <mxGeometry width="50" height="50" relative="1" as="geometry">
            <mxPoint x="640" y="470" as="sourcePoint" />
            <mxPoint x="690" y="420" as="targetPoint" />
          </mxGeometry>
        </mxCell>
        <mxCell id="Upv4YybJIMChpoN5srZg-55" value="" style="group" vertex="1" connectable="0" parent="1">
          <mxGeometry x="890" y="310" width="650" height="270" as="geometry" />
        </mxCell>
        <mxCell id="Upv4YybJIMChpoN5srZg-53" value="" style="rounded=0;whiteSpace=wrap;html=1;dashed=1;fillColor=none;" vertex="1" parent="Upv4YybJIMChpoN5srZg-55">
          <mxGeometry width="430" height="210" as="geometry" />
        </mxCell>
        <mxCell id="Upv4YybJIMChpoN5srZg-54" value="Feature Extraction" style="shape=process;whiteSpace=wrap;html=1;backgroundOutline=1;fontStyle=1;fontSize=14;" vertex="1" parent="Upv4YybJIMChpoN5srZg-55">
          <mxGeometry x="60" y="75" width="120" height="60" as="geometry" />
        </mxCell>
        <mxCell id="Upv4YybJIMChpoN5srZg-59" value="Statistical Feature Engineering" style="shape=process;whiteSpace=wrap;html=1;backgroundOutline=1;fontStyle=1;fontSize=14;" vertex="1" parent="Upv4YybJIMChpoN5srZg-55">
          <mxGeometry x="280" y="75" width="120" height="60" as="geometry" />
        </mxCell>
        <mxCell id="Upv4YybJIMChpoN5srZg-70" value="" style="shape=flexArrow;endArrow=classic;html=1;rounded=0;entryX=0;entryY=0.5;entryDx=0;entryDy=0;exitX=1;exitY=0.5;exitDx=0;exitDy=0;" edge="1" parent="Upv4YybJIMChpoN5srZg-55" source="Upv4YybJIMChpoN5srZg-54" target="Upv4YybJIMChpoN5srZg-59">
          <mxGeometry width="50" height="50" relative="1" as="geometry">
            <mxPoint x="-30" y="180" as="sourcePoint" />
            <mxPoint x="20" y="130" as="targetPoint" />
          </mxGeometry>
        </mxCell>
        <mxCell id="Upv4YybJIMChpoN5srZg-72" value="" style="endArrow=classic;html=1;rounded=0;entryX=0;entryY=0.5;entryDx=0;entryDy=0;exitX=0;exitY=0.5;exitDx=0;exitDy=0;" edge="1" parent="Upv4YybJIMChpoN5srZg-55" source="Upv4YybJIMChpoN5srZg-53" target="Upv4YybJIMChpoN5srZg-54">
          <mxGeometry width="50" height="50" relative="1" as="geometry">
            <mxPoint x="-30" y="180" as="sourcePoint" />
            <mxPoint x="20" y="130" as="targetPoint" />
            <Array as="points">
              <mxPoint x="20" y="105" />
            </Array>
          </mxGeometry>
        </mxCell>
        <mxCell id="Upv4YybJIMChpoN5srZg-78" value="" style="shape=flexArrow;endArrow=classic;html=1;rounded=0;entryX=0.023;entryY=0.598;entryDx=0;entryDy=0;entryPerimeter=0;" edge="1" parent="Upv4YybJIMChpoN5srZg-55" target="Upv4YybJIMChpoN5srZg-79">
          <mxGeometry width="50" height="50" relative="1" as="geometry">
            <mxPoint x="430" y="110" as="sourcePoint" />
            <mxPoint x="510" y="110" as="targetPoint" />
          </mxGeometry>
        </mxCell>
        <mxCell id="Upv4YybJIMChpoN5srZg-79" value="Dataset_N" style="shape=cylinder3;whiteSpace=wrap;html=1;boundedLbl=1;backgroundOutline=1;size=15;fontStyle=1;fontSize=14;" vertex="1" parent="Upv4YybJIMChpoN5srZg-55">
          <mxGeometry x="500" y="20" width="140" height="150" as="geometry" />
        </mxCell>
        <mxCell id="Upv4YybJIMChpoN5srZg-66" value="" style="endArrow=none;html=1;rounded=0;exitX=0;exitY=0;exitDx=110;exitDy=45;exitPerimeter=0;entryX=0;entryY=0.5;entryDx=0;entryDy=0;" edge="1" parent="1" source="Upv4YybJIMChpoN5srZg-48" target="Upv4YybJIMChpoN5srZg-53">
          <mxGeometry width="50" height="50" relative="1" as="geometry">
            <mxPoint x="860" y="470" as="sourcePoint" />
            <mxPoint x="910" y="420" as="targetPoint" />
          </mxGeometry>
        </mxCell>
        <mxCell id="Upv4YybJIMChpoN5srZg-67" value="" style="endArrow=none;html=1;rounded=0;exitX=0;exitY=0;exitDx=110;exitDy=45;exitPerimeter=0;entryX=0;entryY=0.5;entryDx=0;entryDy=0;" edge="1" parent="1" source="Upv4YybJIMChpoN5srZg-47" target="Upv4YybJIMChpoN5srZg-53">
          <mxGeometry width="50" height="50" relative="1" as="geometry">
            <mxPoint x="860" y="470" as="sourcePoint" />
            <mxPoint x="910" y="420" as="targetPoint" />
          </mxGeometry>
        </mxCell>
        <mxCell id="Upv4YybJIMChpoN5srZg-68" value="" style="endArrow=none;html=1;rounded=0;exitX=0;exitY=0;exitDx=110;exitDy=45;exitPerimeter=0;entryX=0;entryY=0.5;entryDx=0;entryDy=0;" edge="1" parent="1" source="Upv4YybJIMChpoN5srZg-46" target="Upv4YybJIMChpoN5srZg-53">
          <mxGeometry width="50" height="50" relative="1" as="geometry">
            <mxPoint x="770" y="475" as="sourcePoint" />
            <mxPoint x="900" y="435" as="targetPoint" />
          </mxGeometry>
        </mxCell>
        <mxCell id="Upv4YybJIMChpoN5srZg-69" value="" style="endArrow=none;html=1;rounded=0;exitX=0;exitY=0;exitDx=110;exitDy=45;exitPerimeter=0;entryX=0;entryY=0.5;entryDx=0;entryDy=0;" edge="1" parent="1" source="Upv4YybJIMChpoN5srZg-45" target="Upv4YybJIMChpoN5srZg-53">
          <mxGeometry width="50" height="50" relative="1" as="geometry">
            <mxPoint x="780" y="485" as="sourcePoint" />
            <mxPoint x="910" y="445" as="targetPoint" />
          </mxGeometry>
        </mxCell>
        <mxCell id="Upv4YybJIMChpoN5srZg-81" value="" style="endArrow=classic;html=1;rounded=0;entryX=0.5;entryY=1;entryDx=0;entryDy=0;exitX=0.5;exitY=0;exitDx=0;exitDy=0;exitPerimeter=0;" edge="1" parent="1" source="Upv4YybJIMChpoN5srZg-79" target="3a17f1ce550125da-11">
          <mxGeometry width="50" height="50" relative="1" as="geometry">
            <mxPoint x="860" y="370" as="sourcePoint" />
            <mxPoint x="910" y="320" as="targetPoint" />
          </mxGeometry>
        </mxCell>
        <mxCell id="Upv4YybJIMChpoN5srZg-82" value="" style="endArrow=classic;html=1;rounded=0;exitX=0.996;exitY=0.481;exitDx=0;exitDy=0;exitPerimeter=0;entryX=0;entryY=0.5;entryDx=0;entryDy=0;" edge="1" parent="1" source="Upv4YybJIMChpoN5srZg-17" target="3a17f1ce550125da-11">
          <mxGeometry width="50" height="50" relative="1" as="geometry">
            <mxPoint x="860" y="370" as="sourcePoint" />
            <mxPoint x="910" y="320" as="targetPoint" />
          </mxGeometry>
        </mxCell>
        <mxCell id="Upv4YybJIMChpoN5srZg-83" value="Analisi dei Risulatati" style="ellipse;whiteSpace=wrap;html=1;fontStyle=1;fontSize=14;" vertex="1" parent="1">
          <mxGeometry x="1570" y="140" width="120" height="80" as="geometry" />
        </mxCell>
        <mxCell id="Upv4YybJIMChpoN5srZg-84" value="" style="endArrow=classic;html=1;rounded=0;entryX=0;entryY=0.5;entryDx=0;entryDy=0;exitX=1;exitY=0.5;exitDx=0;exitDy=0;" edge="1" parent="1" source="3a17f1ce550125da-11" target="Upv4YybJIMChpoN5srZg-83">
          <mxGeometry width="50" height="50" relative="1" as="geometry">
            <mxPoint x="860" y="370" as="sourcePoint" />
            <mxPoint x="910" y="320" as="targetPoint" />
          </mxGeometry>
        </mxCell>
      </root>
    </mxGraphModel>
  </diagram>
</mxfile>
